<svg width="40" height="40" viewBox="0 0 40 40" fill="none" xmlns="http://www.w3.org/2000/svg">
<rect width="40" height="40" fill="white"/>
<path d="M31.2 12.4286V20.9143H7.8V12.4286C7.8 12.0814 8.08142 11.8 8.42857 11.8H30.5714C30.9186 11.8 31.2 12.0814 31.2 12.4286Z" fill="white" stroke="#181818" stroke-width="1.6"/>
<path d="M31.2 21.7142V24.5713C31.2 24.9184 30.9186 25.1999 30.5714 25.1999H8.42858C8.08143 25.1999 7.80001 24.9184 7.80001 24.5713V21.7142C7.80001 21.367 8.08143 21.0856 8.42858 21.0856H30.5714C30.9186 21.0856 31.2 21.367 31.2 21.7142Z" fill="white" stroke="#181818" stroke-width="1.6"/>
<path d="M12 25.2856V28.1427M27 26.5101V25.2856V28.1427" stroke="#181818" stroke-width="1.6"/>
<path d="M12 20.9999V11.7142" stroke="#181818" stroke-width="1.6"/>
<path d="M17 20.9999V11.7142" stroke="#181818" stroke-width="1.6"/>
<path d="M22 20.9999V11.7142" stroke="#181818" stroke-width="1.6"/>
<path d="M27 20.9999V11.7142" stroke="#181818" stroke-width="1.6"/>
</svg>
