<svg width="40" height="40" viewBox="0 0 40 40" fill="none" xmlns="http://www.w3.org/2000/svg">
<rect width="40" height="40" fill="white"/>
<path d="M31.6286 11.4286V19.2857C31.6286 19.6329 31.3471 19.9143 31 19.9143H9.57142C9.22427 19.9143 8.94285 19.6329 8.94285 19.2857V11.4286C8.94285 11.0814 9.22427 10.8 9.57142 10.8H31C31.3471 10.8 31.6286 11.0814 31.6286 11.4286Z" fill="white" stroke="#181818" stroke-width="1.6"/>
<path d="M18.7714 15.7143V18.5714C18.7714 18.9186 18.49 19.2 18.1428 19.2H12.4286C12.0814 19.2 11.8 18.9186 11.8 18.5714V15.7143C11.8 15.3671 12.0814 15.0857 12.4286 15.0857H18.1429C18.49 15.0857 18.7714 15.3671 18.7714 15.7143Z" fill="white" stroke="#181818" stroke-width="1.6"/>
<path d="M28.7714 15.7143V18.5714C28.7714 18.9186 28.49 19.2 28.1428 19.2H22.4286C22.0814 19.2 21.8 18.9186 21.8 18.5714V15.7143C21.8 15.3671 22.0814 15.0857 22.4286 15.0857H28.1429C28.49 15.0857 28.7714 15.3671 28.7714 15.7143Z" fill="white" stroke="#181818" stroke-width="1.6"/>
<path d="M33.7714 20V25.7143C33.7714 26.0614 33.49 26.3428 33.1429 26.3428H7.42856C7.08141 26.3428 6.79999 26.0614 6.79999 25.7143V20C6.79999 19.6528 7.08141 19.3714 7.42856 19.3714H33.1428C33.49 19.3714 33.7714 19.6528 33.7714 20Z" fill="white" stroke="#181818" stroke-width="1.6"/>
<path d="M9.57142 27.1428V29.9999M31 28.3673V27.1428V29.9999" stroke="#181818" stroke-width="1.6"/>
</svg>
