<svg width="40" height="40" viewBox="0 0 40 40" fill="none" xmlns="http://www.w3.org/2000/svg">
<rect width="40" height="40" fill="white"/>
<path d="M33.7714 17.4285V28.1428C33.7714 28.49 33.49 28.7714 33.1429 28.7714H7.42856C7.08141 28.7714 6.79999 28.49 6.79999 28.1428V17.4285C6.79999 17.0814 7.08141 16.8 7.42856 16.8H33.1428C33.49 16.8 33.7714 17.0814 33.7714 17.4285Z" stroke="#181818" stroke-width="1.6"/>
<path d="M14.2143 12.4285L13.7518 11.5037C13.3772 10.7544 13.4474 9.8593 13.9344 9.17756V9.17756C14.5225 8.35412 14.4922 7.2402 13.86 6.45002L13.5 5.99997" stroke="#181818" stroke-width="1.6"/>
<path d="M20.2857 12.4285L19.8233 11.5037C19.4487 10.7544 19.5189 9.8593 20.0058 9.17756V9.17756C20.594 8.35412 20.5636 7.2402 19.9315 6.45002L19.5715 5.99997" stroke="#181818" stroke-width="1.6"/>
<path d="M26.3571 12.4285L25.8947 11.5037C25.52 10.7544 25.5903 9.8593 26.0772 9.17756V9.17756C26.6654 8.35412 26.635 7.2402 26.0029 6.45002L25.6428 5.99997" stroke="#181818" stroke-width="1.6"/>
<path d="M9.57142 28.1429V33.1429M31 30.2857V28.1429V33.1429" stroke="#181818" stroke-width="1.6"/>
<circle cx="11.7143" cy="21" r="1.34286" stroke="#181818" stroke-width="1.6"/>
<circle cx="17.4286" cy="21" r="1.34286" stroke="#181818" stroke-width="1.6"/>
<circle cx="23.1428" cy="21" r="1.34286" stroke="#181818" stroke-width="1.6"/>
<circle cx="28.8572" cy="21" r="1.34286" stroke="#181818" stroke-width="1.6"/>
</svg>
