<svg width="40" height="40" viewBox="0 0 40 40" fill="none" xmlns="http://www.w3.org/2000/svg">
<rect width="40" height="40" fill="white"/>
<path d="M5.21429 11.7859L18.7857 25.3574" stroke="#181818" stroke-width="1.6"/>
<path d="M33.4286 11.7859L19.8572 25.3574" stroke="#181818" stroke-width="1.6"/>
<path d="M32.9857 25.7145V30.0002C32.9857 30.3474 32.7043 30.6288 32.3572 30.6288H6.64287C6.29572 30.6288 6.01429 30.3474 6.01429 30.0002V25.7145C6.01429 25.3674 6.29572 25.0859 6.64287 25.0859H32.3572C32.7043 25.0859 32.9857 25.3674 32.9857 25.7145Z" fill="white" stroke="#181818" stroke-width="1.6"/>
<path d="M8.78583 31.4287V34.2859M30.2144 32.6532V31.4287V34.2859" stroke="#181818" stroke-width="1.6"/>
<mask id="mask0_3401_4522" style="mask-type:alpha" maskUnits="userSpaceOnUse" x="7" y="6" width="25" height="15">
<path d="M7.65302 8.86737L18.4899 19.7042C19.0477 20.2621 19.9523 20.2621 20.5102 19.7042L31.347 8.86737C32.247 7.96742 31.6096 6.42865 30.3368 6.42865H8.66317C7.39045 6.42865 6.75307 7.96742 7.65302 8.86737Z" fill="#D9D9D9"/>
</mask>
<g mask="url(#mask0_3401_4522)">
<circle cx="19.5" cy="20.7144" r="13.4857" stroke="#181818" stroke-width="1.6"/>
<circle cx="19.5001" cy="20.7144" r="9.91428" stroke="#181818" stroke-width="1.6"/>
<circle cx="19.5" cy="20.7145" r="6.34286" stroke="#181818" stroke-width="1.6"/>
<circle cx="19.5001" cy="20.7143" r="2.77143" stroke="#181818" stroke-width="1.6"/>
</g>
</svg>
