<svg width="41" height="40" viewBox="0 0 41 40" fill="none" xmlns="http://www.w3.org/2000/svg">
<mask id="path-1-inside-1_3402_2502" fill="white">
<path d="M5.5 29.2858C5.5 21.0015 12.2157 14.2858 20.5 14.2858Lnan nanL20.5 14.2858C28.7843 14.2858 35.5 21.0015 35.5 29.2858V32.8572C35.5 33.6462 34.8604 34.2858 34.0714 34.2858H6.92857C6.13959 34.2858 5.5 33.6462 5.5 32.8572V29.2858Z"/>
</mask>
<path d="M33.9 29.2858V32.8572H37.1V29.2858H33.9ZM34.0714 32.6858H6.92857V35.8858H34.0714V32.6858ZM7.1 32.8572V29.2858H3.9V32.8572H7.1ZM20.5 15.8858C27.9006 15.8858 33.9 21.8852 33.9 29.2858H37.1C37.1 20.1178 29.6679 12.6858 20.5 12.6858V15.8858ZM20.5 12.6858C11.3321 12.6858 3.9 20.1178 3.9 29.2858H7.1C7.1 21.8852 13.0994 15.8858 20.5 15.8858V12.6858ZM6.92857 32.6858C7.02325 32.6858 7.1 32.7625 7.1 32.8572H3.9C3.9 34.5298 5.25594 35.8858 6.92857 35.8858V32.6858ZM33.9 32.8572C33.9 32.7625 33.9768 32.6858 34.0714 32.6858V35.8858C35.7441 35.8858 37.1 34.5298 37.1 32.8572H33.9Z" fill="#8C8C8C" mask="url(#path-1-inside-1_3402_2502)"/>
<path d="M6.92856 27.1428H16.3036M25.9911 27.1428H35.0536" stroke="#8C8C8C" stroke-width="1.6"/>
<path d="M15.5857 27.8571C15.5857 25.143 17.7859 22.9428 20.5 22.9428C23.2141 22.9428 25.4143 25.143 25.4143 27.8571V33.4857H15.5857V27.8571Z" stroke="#8C8C8C" stroke-width="1.6"/>
<path d="M20.5 14.9999L20.5 5.71423" stroke="#8C8C8C" stroke-width="1.6"/>
<path d="M19.7857 6.42853H28.2232L26.3482 8.30353L27.9107 10.1785H20.4107" stroke="#8C8C8C" stroke-width="1.6"/>
</svg>
