<svg width="40" height="40" viewBox="0 0 40 40" fill="none" xmlns="http://www.w3.org/2000/svg">
<rect width="40" height="40" fill="white"/>
<path d="M20 11.651L6.52964 31.3361C5.88086 32.2842 6.55977 33.5714 7.70861 33.5714H32.2914C33.4403 33.5714 34.1192 32.2842 33.4704 31.3361L20 11.651Z" fill="white"/>
<path fill-rule="evenodd" clip-rule="evenodd" d="M19.0306 11.651L5.8694 30.8843C4.8573 32.3633 5.91639 34.3714 7.70859 34.3714H32.2914C34.0836 34.3714 35.1427 32.3633 34.1306 30.8843L20.9694 11.651L24.7227 6.16605L23.4023 5.26248L20 10.2344L16.5977 5.26251L15.2773 6.16608L19.0306 11.651ZM20 13.0676L7.18984 31.7879C6.90438 32.205 7.2031 32.7714 7.70859 32.7714H32.2914C32.7969 32.7714 33.0956 32.205 32.8102 31.7879L20 13.0676Z" fill="#181818"/>
<path fill-rule="evenodd" clip-rule="evenodd" d="M20.518 24.3083C20.2682 23.9451 19.7318 23.9451 19.4821 24.3083L12.8021 34.0246L11.4836 33.1182L18.1636 23.4019C19.0491 22.1139 20.9509 22.1139 21.8365 23.4019L28.5164 33.1182L27.1979 34.0246L20.518 24.3083Z" fill="#181818"/>
<path fill-rule="evenodd" clip-rule="evenodd" d="M20.8 23.5715L20.8 33.5715L19.2 33.5715L19.2 23.5715L20.8 23.5715Z" fill="#181818"/>
</svg>
