<svg width="40" height="40" viewBox="0 0 40 40" fill="none" xmlns="http://www.w3.org/2000/svg">
<rect width="40" height="40" fill="white"/>
<path d="M31.6286 11.4286V19.2857C31.6286 19.6329 31.3472 19.9143 31 19.9143H9.57148C9.22432 19.9143 8.9429 19.6329 8.9429 19.2857V11.4286C8.9429 11.0814 9.22432 10.8 9.57147 10.8H31C31.3472 10.8 31.6286 11.0814 31.6286 11.4286Z" fill="white" stroke="#181818" stroke-width="1.6"/>
<path d="M33.7714 19.9999V25.7142C33.7714 26.0614 33.49 26.3428 33.1429 26.3428H7.42857C7.08142 26.3428 6.8 26.0614 6.8 25.7142V19.9999C6.8 19.6528 7.08142 19.3714 7.42857 19.3714H33.1429C33.49 19.3714 33.7714 19.6528 33.7714 19.9999Z" fill="white" stroke="#181818" stroke-width="1.6"/>
<path d="M9.57147 27.1429V30.0001M31 28.3674V27.1429V30.0001" stroke="#181818" stroke-width="1.6"/>
<path d="M11 26.3429L7.42857 26.3429C7.08142 26.3429 6.8 26.0615 6.8 25.7144L6.8 17.8572C6.8 17.5101 7.08142 17.2286 7.42857 17.2286L11 17.2286C11.3471 17.2286 11.6286 17.5101 11.6286 17.8572L11.6286 25.7144C11.6286 26.0615 11.3471 26.3429 11 26.3429Z" fill="white" stroke="#181818" stroke-width="1.6"/>
<path d="M33.1429 26.3429L29.5715 26.3429C29.2243 26.3429 28.9429 26.0615 28.9429 25.7144L28.9429 17.8572C28.9429 17.5101 29.2243 17.2286 29.5715 17.2286L33.1429 17.2286C33.4901 17.2286 33.7715 17.5101 33.7715 17.8572L33.7715 25.7144C33.7715 26.0615 33.4901 26.3429 33.1429 26.3429Z" fill="white" stroke="#181818" stroke-width="1.6"/>
</svg>
